<?xml version="1.0" standalone="no"?>
<!DOCTYPE svg PUBLIC "-//W3C//DTD SVG 20010904//EN"
 "http://www.w3.org/TR/2001/REC-SVG-20010904/DTD/svg10.dtd">
<svg version="1.0" xmlns="http://www.w3.org/2000/svg"
 width="73.000000pt" height="73.000000pt" viewBox="0 0 73.000000 73.000000"
 preserveAspectRatio="xMidYMid meet">
<metadata>
Created by potrace 1.11, written by Peter Selinger 2001-2013
</metadata>
<g transform="translate(0.000000,73.000000) scale(0.100000,-0.100000)"
fill="#000000" stroke="none">
<path d="M637 665 c-15 -8 -31 -15 -35 -17 -4 -2 -6 -6 -4 -10 1 -5 -2 -8 -8
-8 -5 0 -35 -24 -65 -54 -30 -29 -55 -51 -55 -49 0 2 -37 -32 -82 -76 -45 -45
-83 -81 -85 -81 -1 0 -14 10 -29 23 -37 32 -66 37 -86 14 -10 -11 -18 -22 -18
-24 0 -6 44 -67 52 -73 4 -3 22 -26 40 -50 21 -28 41 -45 53 -45 25 1 47 14
41 24 -3 4 2 17 12 27 9 11 25 36 35 56 11 19 31 49 45 65 15 16 28 32 29 36
4 14 68 90 136 161 37 38 67 73 67 77 0 16 -17 18 -43 4z"/>
<path d="M269 605 c-3 -2 -16 -5 -29 -7 -86 -13 -186 -118 -205 -214 -7 -37
-7 -122 -1 -152 12 -57 98 -154 129 -144 4 1 7 -2 7 -7 0 -5 9 -7 20 -4 11 3
20 1 20 -4 0 -5 6 -10 13 -10 6 0 26 -4 42 -7 66 -15 101 -13 152 9 28 13 54
21 57 17 3 -3 6 0 6 6 0 6 9 13 20 17 29 9 89 73 106 114 17 40 13 123 -7 147
-6 8 -9 14 -5 14 3 0 -3 9 -14 20 -24 24 -43 25 -64 5 -17 -17 -12 -40 16 -69
10 -11 18 -25 19 -30 0 -6 2 -19 4 -30 7 -34 -25 -81 -74 -109 -27 -14 -51
-24 -55 -20 -3 3 -6 1 -6 -5 0 -6 -15 -14 -32 -17 -18 -4 -39 -12 -45 -17 -9
-7 -13 -7 -13 1 0 7 -5 9 -13 4 -6 -4 -18 -8 -26 -10 -17 -2 -101 38 -101 49
0 4 -5 8 -12 8 -17 0 -68 61 -68 82 0 9 -4 19 -8 22 -5 3 -6 25 -2 50 4 24 5
53 3 65 -1 12 2 21 8 21 5 0 8 4 5 9 -13 21 99 130 135 131 8 0 20 5 27 12 9
9 12 9 12 0 0 -6 7 -9 15 -6 8 4 22 1 29 -5 11 -9 15 -9 18 0 3 8 9 6 21 -5
23 -23 57 -29 57 -10 0 8 -7 17 -15 20 -8 4 -12 10 -9 15 5 8 -11 13 -19 7 -2
-2 -11 5 -21 15 -10 9 -25 17 -34 18 -9 0 -26 2 -38 4 -12 3 -23 3 -25 0z"/>
</g>
</svg>
